CalSansText-Light.ufo
<glyph name="percent" format="2">
  <advance width="741.0"/>
  <unicode hex="0025"/>
  <outline>
    <contour>
      <point x="87.0" y="0.0" type="line"/>
      <point x="147.0" y="0.0" type="line"/>
      <point x="644.0" y="700.0" type="line"/>
      <point x="585.0" y="700.0" type="line"/>
    </contour>
    <contour>
      <point x="540.0" y="-6.0" type="curve" smooth="yes"/>
      <point x="628.0" y="-6.0"/>
      <point x="696.0" y="65.0"/>
      <point x="696.0" y="146.0" type="curve" smooth="yes"/>
      <point x="696.0" y="227.0"/>
      <point x="629.0" y="301.0"/>
      <point x="540.0" y="301.0" type="curve" smooth="yes"/>
      <point x="452.0" y="301.0"/>
      <point x="385.0" y="228.0"/>
      <point x="385.0" y="146.0" type="curve" smooth="yes"/>
      <point x="385.0" y="65.0"/>
      <point x="452.0" y="-6.0"/>
    </contour>
    <contour>
      <point x="540.0" y="43.0" type="curve" smooth="yes"/>
      <point x="481.0" y="43.0"/>
      <point x="441.0" y="89.0"/>
      <point x="441.0" y="145.0" type="curve" smooth="yes"/>
      <point x="441.0" y="205.0"/>
      <point x="481.0" y="251.0"/>
      <point x="540.0" y="251.0" type="curve" smooth="yes"/>
      <point x="600.0" y="251.0"/>
      <point x="640.0" y="205.0"/>
      <point x="640.0" y="145.0" type="curve" smooth="yes"/>
      <point x="641.0" y="87.0"/>
      <point x="602.0" y="43.0"/>
    </contour>
    <contour>
      <point x="200.0" y="401.0" type="curve" smooth="yes"/>
      <point x="288.0" y="401.0"/>
      <point x="356.0" y="472.0"/>
      <point x="356.0" y="553.0" type="curve" smooth="yes"/>
      <point x="356.0" y="634.0"/>
      <point x="289.0" y="708.0"/>
      <point x="200.0" y="708.0" type="curve" smooth="yes"/>
      <point x="112.0" y="708.0"/>
      <point x="45.0" y="635.0"/>
      <point x="45.0" y="553.0" type="curve" smooth="yes"/>
      <point x="45.0" y="472.0"/>
      <point x="112.0" y="401.0"/>
    </contour>
    <contour>
      <point x="200.0" y="450.0" type="curve" smooth="yes"/>
      <point x="141.0" y="450.0"/>
      <point x="101.0" y="496.0"/>
      <point x="101.0" y="552.0" type="curve" smooth="yes"/>
      <point x="101.0" y="612.0"/>
      <point x="141.0" y="658.0"/>
      <point x="200.0" y="658.0" type="curve" smooth="yes"/>
      <point x="260.0" y="658.0"/>
      <point x="300.0" y="612.0"/>
      <point x="300.0" y="552.0" type="curve" smooth="yes"/>
      <point x="301.0" y="494.0"/>
      <point x="262.0" y="450.0"/>
    </contour>
  </outline>
</glyph>
<glyph name="question" format="2">
  <advance width="511.0"/>
  <unicode hex="003F"/>
  <outline>
    <contour>
      <point x="213.0" y="143.0" type="line"/>
      <point x="270.0" y="143.0" type="line"/>
      <point x="278.0" y="301.0" type="line"/>
      <point x="282.0" y="304.0" type="line"/>
      <point x="401.0" y="316.0"/>
      <point x="469.0" y="392.0"/>
      <point x="469.0" y="501.0" type="curve" smooth="yes"/>
      <point x="469.0" y="623.0"/>
      <point x="379.0" y="713.0"/>
      <point x="258.0" y="713.0" type="curve" smooth="yes"/>
      <point x="118.0" y="713.0"/>
      <point x="31.0" y="619.0"/>
      <point x="31.0" y="500.0" type="curve"/>
      <point x="117.0" y="500.0" type="line"/>
      <point x="117.0" y="575.0"/>
      <point x="166.0" y="636.0"/>
      <point x="256.0" y="636.0" type="curve" smooth="yes"/>
      <point x="332.0" y="636.0"/>
      <point x="381.0" y="579.0"/>
      <point x="381.0" y="493.0" type="curve" smooth="yes"/>
      <point x="381.0" y="416.0"/>
      <point x="336.0" y="359.0"/>
      <point x="243.0" y="359.0" type="curve" smooth="yes"/>
      <point x="230.0" y="359.0"/>
      <point x="208.0" y="362.0"/>
      <point x="204.0" y="364.0" type="curve"/>
    </contour>
    <component base="period" xOffset="133.0"/>
  </outline>
</glyph>
<glyph name="P" format="2">
  <advance width="576.0"/>
  <unicode hex="0050"/>
  <anchor x="123.0" y="0.0" name="bottom"/>
  <anchor x="164.0" y="0.0" name="ogonek"/>
  <anchor x="285.0" y="700.0" name="top"/>
  <outline>
    <contour>
      <point x="82.0" y="0.0" type="line"/>
      <point x="164.0" y="0.0" type="line"/>
      <point x="164.0" y="297.0" type="line"/>
      <point x="306.0" y="297.0" type="line" smooth="yes"/>
      <point x="433.0" y="297.0"/>
      <point x="534.0" y="363.0"/>
      <point x="534.0" y="500.0" type="curve" smooth="yes"/>
      <point x="534.0" y="636.0"/>
      <point x="432.0" y="700.0"/>
      <point x="306.0" y="700.0" type="curve" smooth="yes"/>
      <point x="82.0" y="700.0" type="line"/>
    </contour>
    <contour>
      <point x="164.0" y="373.0" type="line"/>
      <point x="164.0" y="624.0" type="line"/>
      <point x="298.0" y="624.0" type="line" smooth="yes"/>
      <point x="388.0" y="624.0"/>
      <point x="449.0" y="592.0"/>
      <point x="449.0" y="500.0" type="curve" smooth="yes"/>
      <point x="449.0" y="406.0"/>
      <point x="388.0" y="373.0"/>
      <point x="298.0" y="373.0" type="curve" smooth="yes"/>
    </contour>
  </outline>
</glyph>
<glyph name="R" format="2">
  <advance width="578.0"/>
  <unicode hex="0052"/>
  <anchor x="295.0" y="0.0" name="bottom"/>
  <anchor x="451.0" y="0.0" name="ogonek"/>
  <anchor x="270.0" y="700.0" name="top"/>
  <outline>
    <contour>
      <point x="82.0" y="0.0" type="line"/>
      <point x="164.0" y="0.0" type="line"/>
      <point x="164.0" y="303.0" type="line"/>
      <point x="258.0" y="303.0" type="line"/>
      <point x="273.0" y="276.0"/>
      <point x="285.0" y="256.0"/>
      <point x="296.0" y="239.0" type="curve" smooth="yes"/>
      <point x="451.0" y="0.0" type="line"/>
      <point x="552.0" y="0.0" type="line"/>
      <point x="351.0" y="310.0" type="line"/>
      <point x="447.0" y="322.0"/>
      <point x="534.0" y="387.0"/>
      <point x="534.0" y="503.0" type="curve" smooth="yes"/>
      <point x="534.0" y="635.0"/>
      <point x="426.0" y="700.0"/>
      <point x="299.0" y="700.0" type="curve" smooth="yes"/>
      <point x="82.0" y="700.0" type="line"/>
    </contour>
    <contour>
      <point x="164.0" y="379.0" type="line"/>
      <point x="164.0" y="624.0" type="line"/>
      <point x="287.0" y="624.0" type="line" smooth="yes"/>
      <point x="383.0" y="624.0"/>
      <point x="448.0" y="592.0"/>
      <point x="448.0" y="503.0" type="curve" smooth="yes"/>
      <point x="448.0" y="411.0"/>
      <point x="383.0" y="379.0"/>
      <point x="287.0" y="379.0" type="curve" smooth="yes"/>
    </contour>
  </outline>
</glyph>
<glyph name="X" format="2">
  <advance width="645.0"/>
  <unicode hex="0058"/>
  <anchor x="323.0" y="0.0" name="bottom"/>
  <anchor x="323.0" y="700.0" name="top"/>
  <outline>
    <contour>
      <point x="22.0" y="0.0" type="line"/>
      <point x="125.0" y="0.0" type="line"/>
      <point x="323.0" y="284.0" type="line"/>
      <point x="327.0" y="284.0" type="line"/>
      <point x="521.0" y="0.0" type="line"/>
      <point x="626.0" y="0.0" type="line"/>
      <point x="378.0" y="348.0" type="line"/>
      <point x="615.0" y="700.0" type="line"/>
      <point x="516.0" y="700.0" type="line"/>
      <point x="327.0" y="415.0" type="line"/>
      <point x="323.0" y="415.0" type="line"/>
      <point x="137.0" y="700.0" type="line"/>
      <point x="33.0" y="700.0" type="line"/>
      <point x="272.0" y="351.0" type="line"/>
    </contour>
  </outline>
</glyph>
<glyph name="bracketleft" format="2">
  <advance width="301.0"/>
  <unicode hex="005B"/>
  <outline>
    <contour>
      <point x="83.0" y="-220.0" type="line"/>
      <point x="246.0" y="-220.0" type="line"/>
      <point x="246.0" y="-163.0" type="line"/>
      <point x="151.0" y="-163.0" type="line"/>
      <point x="151.0" y="683.0" type="line"/>
      <point x="246.0" y="683.0" type="line"/>
      <point x="246.0" y="740.0" type="line"/>
      <point x="83.0" y="740.0" type="line"/>
    </contour>
  </outline>
</glyph>
<glyph name="x" format="2">
  <advance width="526.0"/>
  <unicode hex="0078"/>
  <anchor x="263.0" y="0.0" name="bottom"/>
  <anchor x="263.0" y="490.0" name="top"/>
  <outline>
    <contour>
      <point x="22.0" y="0.0" type="line"/>
      <point x="117.0" y="0.0" type="line"/>
      <point x="261.0" y="198.0" type="line"/>
      <point x="265.0" y="198.0" type="line"/>
      <point x="406.0" y="0.0" type="line"/>
      <point x="504.0" y="0.0" type="line"/>
      <point x="315.0" y="247.0" type="line"/>
      <point x="492.0" y="490.0" type="line"/>
      <point x="398.0" y="490.0" type="line"/>
      <point x="265.0" y="299.0" type="line"/>
      <point x="261.0" y="299.0" type="line"/>
      <point x="132.0" y="490.0" type="line"/>
      <point x="35.0" y="490.0" type="line"/>
      <point x="212.0" y="248.0" type="line"/>
    </contour>
  </outline>
</glyph>
<glyph name="cent" format="2">
  <advance width="485.0"/>
  <unicode hex="00A2"/>
  <anchor x="265.0" y="491.0" name="_TopCurrency"/>
  <outline>
    <contour>
      <point x="267.0" y="30.0" type="curve" smooth="yes"/>
      <point x="344.0" y="30.0"/>
      <point x="410.0" y="60.0"/>
      <point x="455.0" y="118.0" type="curve"/>
      <point x="401.0" y="164.0" type="line"/>
      <point x="370.0" y="123.0"/>
      <point x="327.0" y="104.0"/>
      <point x="271.0" y="104.0" type="curve" smooth="yes"/>
      <point x="179.0" y="104.0"/>
      <point x="110.0" y="169.0"/>
      <point x="110.0" y="273.0" type="curve" smooth="yes"/>
      <point x="110.0" y="377.0"/>
      <point x="178.0" y="443.0"/>
      <point x="267.0" y="443.0" type="curve" smooth="yes"/>
      <point x="321.0" y="443.0"/>
      <point x="365.0" y="423.0"/>
      <point x="399.0" y="380.0" type="curve"/>
      <point x="456.0" y="426.0" type="line"/>
      <point x="410.0" y="485.0"/>
      <point x="343.0" y="518.0"/>
      <point x="264.0" y="517.0" type="curve" smooth="yes"/>
      <point x="131.0" y="515.0"/>
      <point x="30.0" y="415.0"/>
      <point x="30.0" y="273.0" type="curve" smooth="yes"/>
      <point x="30.0" y="131.0"/>
      <point x="133.0" y="30.0"/>
    </contour>
    <component base="verticalTopCurrencycomb" xOffset="265.0" yOffset="-162.0"/>
    <component base="verticalBottomCurrencycomb" xOffset="265.0" yOffset="2.0"/>
  </outline>
</glyph>
<glyph name="brokenbar" format="2">
  <advance width="234.0"/>
  <unicode hex="00A6"/>
  <outline>
    <contour>
      <point x="87.0" y="375.0" type="line"/>
      <point x="147.0" y="375.0" type="line"/>
      <point x="147.0" y="900.0" type="line"/>
      <point x="87.0" y="900.0" type="line"/>
      <point x="87.0" y="535.0" type="line"/>
    </contour>
    <contour>
      <point x="147.0" y="305.0" type="line"/>
      <point x="87.0" y="305.0" type="line"/>
      <point x="87.0" y="3.0" type="line"/>
      <point x="87.0" y="-220.0" type="line"/>
      <point x="147.0" y="-220.0" type="line"/>
    </contour>
  </outline>
</glyph>
<glyph name="plusminus" format="2">
  <advance width="596.0"/>
  <unicode hex="00B1"/>
  <outline>
    <contour>
      <point x="72.0" y="386.0" type="line"/>
      <point x="524.0" y="386.0" type="line"/>
      <point x="524.0" y="458.0" type="line"/>
      <point x="72.0" y="458.0" type="line"/>
    </contour>
    <contour>
      <point x="72.0" y="100.0" type="line"/>
      <point x="524.0" y="100.0" type="line"/>
      <point x="524.0" y="172.0" type="line"/>
      <point x="72.0" y="172.0" type="line"/>
    </contour>
    <contour>
      <point x="257.0" y="234.0" type="line"/>
      <point x="339.0" y="234.0" type="line"/>
      <point x="339.0" y="610.0" type="line"/>
      <point x="257.0" y="610.0" type="line"/>
    </contour>
  </outline>
</glyph>
<glyph name="ae" format="2">
  <advance width="980.0"/>
  <unicode hex="00E6"/>
  <anchor x="503.0" y="0.0" name="bottom"/>
  <anchor x="460.0" y="0.0" name="ogonek"/>
  <anchor x="503.0" y="490.0" name="top"/>
  <outline>
    <contour>
      <point x="709.0" y="-13.0" type="curve" smooth="yes"/>
      <point x="797.0" y="-13.0"/>
      <point x="870.0" y="19.0"/>
      <point x="916.0" y="80.0" type="curve"/>
      <point x="859.0" y="129.0" type="line"/>
      <point x="824.0" y="81.0"/>
      <point x="778.0" y="61.0"/>
      <point x="710.0" y="61.0" type="curve" smooth="yes"/>
      <point x="631.0" y="61.0"/>
      <point x="541.0" y="129.0"/>
      <point x="539.0" y="233.0" type="curve"/>
      <point x="539.0" y="245.0" type="line"/>
      <point x="538.0" y="362.0"/>
      <point x="631.0" y="429.0"/>
      <point x="706.0" y="429.0" type="curve" smooth="yes"/>
      <point x="812.0" y="429.0"/>
      <point x="868.0" y="352.0"/>
      <point x="864.0" y="245.0" type="curve"/>
      <point x="892.0" y="284.0" type="line"/>
      <point x="498.0" y="284.0" type="line"/>
      <point x="498.0" y="214.0" type="line"/>
      <point x="942.0" y="214.0" type="line"/>
      <point x="944.0" y="223.0"/>
      <point x="944.0" y="236.0"/>
      <point x="944.0" y="246.0" type="curve" smooth="yes"/>
      <point x="944.0" y="397.0"/>
      <point x="855.0" y="503.0"/>
      <point x="708.0" y="503.0" type="curve" smooth="yes"/>
      <point x="591.0" y="503.0"/>
      <point x="507.0" y="392.0"/>
      <point x="507.0" y="246.0" type="curve" smooth="yes"/>
      <point x="507.0" y="96.0"/>
      <point x="589.0" y="-13.0"/>
    </contour>
    <contour>
      <point x="480.0" y="399.0" type="line"/>
      <point x="480.0" y="94.0" type="line"/>
      <point x="551.0" y="94.0" type="line"/>
      <point x="523.0" y="251.0" type="line"/>
      <point x="551.0" y="399.0" type="line"/>
    </contour>
    <component base="a"/>
  </outline>
</glyph>
<glyph name="lslash" format="2">
  <advance width="224.0"/>
  <unicode hex="0142"/>
  <anchor x="112.0" y="0.0" name="bottom"/>
  <anchor x="112.0" y="393.0" name="center"/>
  <anchor x="152.0" y="0.0" name="ogonek"/>
  <anchor x="112.0" y="700.0" name="top"/>
  <anchor x="202.0" y="700.0" name="topright"/>
  <outline>
    <contour>
      <point x="0.0" y="273.0" type="line"/>
      <point x="106.0" y="343.0" type="line"/>
      <point x="116.0" y="343.0" type="line"/>
      <point x="224.0" y="414.0" type="line"/>
      <point x="224.0" y="490.0" type="line"/>
      <point x="116.0" y="419.0" type="line"/>
      <point x="106.0" y="419.0" type="line"/>
      <point x="0.0" y="349.0" type="line"/>
    </contour>
    <component base="l"/>
  </outline>
</glyph>
<glyph name="oe" format="2">
  <advance width="971.0"/>
  <unicode hex="0153"/>
  <anchor x="492.0" y="0.0" name="bottom"/>
  <anchor x="492.0" y="490.0" name="top"/>
  <outline>
    <contour>
      <point x="284.0" y="-13.0" type="curve" smooth="yes"/>
      <point x="429.0" y="-13.0"/>
      <point x="530.0" y="95.0"/>
      <point x="530.0" y="246.0" type="curve" smooth="yes"/>
      <point x="530.0" y="396.0"/>
      <point x="429.0" y="503.0"/>
      <point x="284.0" y="503.0" type="curve" smooth="yes"/>
      <point x="140.0" y="503.0"/>
      <point x="36.0" y="395.0"/>
      <point x="36.0" y="244.0" type="curve" smooth="yes"/>
      <point x="36.0" y="94.0"/>
      <point x="140.0" y="-13.0"/>
    </contour>
    <contour>
      <point x="284.0" y="61.0" type="curve" smooth="yes"/>
      <point x="181.0" y="61.0"/>
      <point x="116.0" y="141.0"/>
      <point x="116.0" y="245.0" type="curve" smooth="yes"/>
      <point x="116.0" y="351.0"/>
      <point x="181.0" y="429.0"/>
      <point x="284.0" y="429.0" type="curve" smooth="yes"/>
      <point x="387.0" y="429.0"/>
      <point x="453.0" y="349.0"/>
      <point x="453.0" y="245.0" type="curve" smooth="yes"/>
      <point x="453.0" y="139.0"/>
      <point x="387.0" y="61.0"/>
    </contour>
    <contour>
      <point x="700.0" y="-13.0" type="curve" smooth="yes"/>
      <point x="788.0" y="-13.0"/>
      <point x="861.0" y="19.0"/>
      <point x="907.0" y="80.0" type="curve"/>
      <point x="850.0" y="129.0" type="line"/>
      <point x="815.0" y="81.0"/>
      <point x="769.0" y="61.0"/>
      <point x="701.0" y="61.0" type="curve" smooth="yes"/>
      <point x="607.0" y="61.0"/>
      <point x="532.0" y="129.0"/>
      <point x="530.0" y="233.0" type="curve"/>
      <point x="530.0" y="245.0" type="line"/>
      <point x="529.0" y="362.0"/>
      <point x="596.0" y="429.0"/>
      <point x="697.0" y="429.0" type="curve" smooth="yes"/>
      <point x="803.0" y="429.0"/>
      <point x="859.0" y="352.0"/>
      <point x="855.0" y="245.0" type="curve"/>
      <point x="883.0" y="284.0" type="line"/>
      <point x="489.0" y="284.0" type="line"/>
      <point x="489.0" y="214.0" type="line"/>
      <point x="933.0" y="214.0" type="line"/>
      <point x="935.0" y="223.0"/>
      <point x="935.0" y="236.0"/>
      <point x="935.0" y="246.0" type="curve" smooth="yes"/>
      <point x="935.0" y="397.0"/>
      <point x="846.0" y="503.0"/>
      <point x="699.0" y="503.0" type="curve" smooth="yes"/>
      <point x="553.0" y="503.0"/>
      <point x="453.0" y="392.0"/>
      <point x="453.0" y="246.0" type="curve" smooth="yes"/>
      <point x="453.0" y="96.0"/>
      <point x="551.0" y="-13.0"/>
    </contour>
    <contour>
      <point x="475.0" y="395.0" type="line"/>
      <point x="475.0" y="95.0" type="line"/>
      <point x="508.0" y="95.0" type="line"/>
      <point x="508.0" y="395.0" type="line"/>
    </contour>
  </outline>
</glyph>
<glyph name="verticallinemod" format="2">
  <advance width="224.0"/>
  <unicode hex="02C8"/>
  <outline>
    <contour>
      <point x="72.0" y="420.0" type="line"/>
      <point x="152.0" y="420.0" type="line"/>
      <point x="152.0" y="740.0" type="line"/>
      <point x="72.0" y="740.0" type="line"/>
      <point x="72.0" y="481.0" type="line"/>
    </contour>
  </outline>
</glyph>
<glyph name="circumflexcomb" format="2">
  <unicode hex="0302"/>
  <anchor x="0.0" y="482.0" name="_top"/>
  <anchor x="0.0" y="673.0" name="top"/>
  <outline>
    <contour>
      <point x="-132.0" y="548.0" type="line"/>
      <point x="-57.0" y="548.0" type="line"/>
      <point x="1.0" y="645.0" type="line"/>
      <point x="3.0" y="645.0" type="line"/>
      <point x="59.0" y="548.0" type="line"/>
      <point x="132.0" y="548.0" type="line"/>
      <point x="27.0" y="707.0" type="line"/>
      <point x="-23.0" y="707.0" type="line"/>
    </contour>
  </outline>
</glyph>
<glyph name="Xi" format="2">
  <advance width="539.0"/>
  <unicode hex="039E"/>
  <outline>
    <contour>
      <point x="71.0" y="0.0" type="line"/>
      <point x="468.0" y="0.0" type="line"/>
      <point x="468.0" y="76.0" type="line"/>
      <point x="71.0" y="76.0" type="line"/>
    </contour>
    <contour>
      <point x="76.0" y="318.0" type="line"/>
      <point x="461.0" y="318.0" type="line"/>
      <point x="461.0" y="394.0" type="line"/>
      <point x="76.0" y="394.0" type="line"/>
    </contour>
    <contour>
      <point x="71.0" y="624.0" type="line"/>
      <point x="466.0" y="624.0" type="line"/>
      <point x="466.0" y="700.0" type="line"/>
      <point x="71.0" y="700.0" type="line"/>
    </contour>
  </outline>
</glyph>
<glyph name="dagger" format="2">
  <advance width="360.0"/>
  <unicode hex="2020"/>
  <outline>
    <contour>
      <point x="145.0" y="301.0" type="line"/>
      <point x="215.0" y="301.0" type="line"/>
      <point x="215.0" y="753.0" type="line"/>
      <point x="145.0" y="753.0" type="line"/>
    </contour>
    <contour>
      <point x="40.0" y="582.0" type="line"/>
      <point x="320.0" y="582.0" type="line"/>
      <point x="320.0" y="647.0" type="line"/>
      <point x="40.0" y="647.0" type="line"/>
    </contour>
  </outline>
</glyph>
<glyph name="guilsinglleft" format="2">
  <advance width="333.0"/>
  <unicode hex="2039"/>
  <outline>
    <contour>
      <point x="195.0" y="48.0" type="line"/>
      <point x="276.0" y="48.0" type="line"/>
      <point x="144.0" y="262.0" type="line"/>
      <point x="144.0" y="266.0" type="line"/>
      <point x="276.0" y="477.0" type="line"/>
      <point x="193.0" y="477.0" type="line"/>
      <point x="67.0" y="263.0" type="line"/>
    </contour>
  </outline>
</glyph>
<glyph name="naira" format="2">
  <advance width="725.0"/>
  <unicode hex="20A6"/>
  <anchor x="369.2495" y="30.0" name="bottom"/>
  <anchor x="635.8342" y="30.0" name="ogonek"/>
  <anchor x="360.7112" y="669.94" name="top"/>
  <outline>
    <contour>
      <point x="0.0" y="324.0" type="line"/>
      <point x="725.0" y="324.0" type="line"/>
      <point x="725.0" y="396.0" type="line"/>
      <point x="0.0" y="396.0" type="line"/>
    </contour>
    <component base="N" xScale="0.9487" yScale="0.9142" xOffset="4.0" yOffset="30.0"/>
  </outline>
</glyph>
<glyph name="peso" format="2">
  <advance width="602.0"/>
  <unicode hex="20B1"/>
  <outline>
    <contour>
      <point x="110.0" y="30.0" type="line"/>
      <point x="192.0" y="30.0" type="line"/>
      <point x="192.0" y="249.0" type="line"/>
      <point x="284.0" y="249.0" type="line" smooth="yes"/>
      <point x="411.0" y="249.0"/>
      <point x="512.0" y="324.0"/>
      <point x="512.0" y="461.0" type="curve" smooth="yes"/>
      <point x="512.0" y="597.0"/>
      <point x="410.0" y="670.0"/>
      <point x="284.0" y="670.0" type="curve" smooth="yes"/>
      <point x="110.0" y="670.0" type="line"/>
    </contour>
    <contour>
      <point x="192.0" y="325.0" type="line"/>
      <point x="192.0" y="594.0" type="line"/>
      <point x="276.0" y="594.0" type="line" smooth="yes"/>
      <point x="366.0" y="594.0"/>
      <point x="427.0" y="553.0"/>
      <point x="427.0" y="461.0" type="curve" smooth="yes"/>
      <point x="427.0" y="367.0"/>
      <point x="366.0" y="325.0"/>
      <point x="276.0" y="325.0" type="curve" smooth="yes"/>
    </contour>
    <contour>
      <point x="20.0" y="373.0" type="line"/>
      <point x="592.0" y="373.0" type="line"/>
      <point x="592.0" y="435.0" type="line"/>
      <point x="20.0" y="435.0" type="line"/>
    </contour>
    <contour>
      <point x="20.0" y="484.0" type="line"/>
      <point x="592.0" y="484.0" type="line"/>
      <point x="592.0" y="546.0" type="line"/>
      <point x="20.0" y="546.0" type="line"/>
    </contour>
  </outline>
</glyph>
<glyph name="tenge" format="2">
  <advance width="591.0"/>
  <unicode hex="20B8"/>
  <outline>
    <contour>
      <point x="255.0" y="30.0" type="line"/>
      <point x="337.0" y="30.0" type="line"/>
      <point x="337.0" y="510.0" type="line"/>
      <point x="255.0" y="510.0" type="line"/>
    </contour>
    <contour>
      <point x="47.0" y="473.0" type="line"/>
      <point x="544.0" y="473.0" type="line"/>
      <point x="544.0" y="549.0" type="line"/>
      <point x="47.0" y="549.0" type="line"/>
    </contour>
    <contour>
      <point x="47.0" y="598.0" type="line"/>
      <point x="544.0" y="598.0" type="line"/>
      <point x="543.0" y="670.0" type="line"/>
      <point x="47.0" y="670.0" type="line"/>
    </contour>
  </outline>
</glyph>
<glyph name="lari" format="2">
  <advance width="691.0"/>
  <unicode hex="20BE"/>
  <outline>
    <contour>
      <point x="593.0" y="396.0" type="curve"/>
      <point x="677.0" y="396.0" type="line"/>
      <point x="655.0" y="557.0"/>
      <point x="520.0" y="673.0"/>
      <point x="362.0" y="673.0" type="curve" smooth="yes"/>
      <point x="186.0" y="673.0"/>
      <point x="44.0" y="530.0"/>
      <point x="44.0" y="366.0" type="curve" smooth="yes"/>
      <point x="44.0" y="243.0"/>
      <point x="98.0" y="149.0"/>
      <point x="206.0" y="109.0" type="curve"/>
      <point x="206.0" y="106.0" type="line"/>
      <point x="22.0" y="106.0" type="line"/>
      <point x="22.0" y="30.0" type="line"/>
      <point x="647.0" y="30.0" type="line"/>
      <point x="647.0" y="106.0" type="line"/>
      <point x="419.0" y="106.0" type="line" smooth="yes"/>
      <point x="232.0" y="106.0"/>
      <point x="128.0" y="209.0"/>
      <point x="128.0" y="366.0" type="curve" smooth="yes"/>
      <point x="128.0" y="500.0"/>
      <point x="234.0" y="597.0"/>
      <point x="362.0" y="597.0" type="curve" smooth="yes"/>
      <point x="474.0" y="597.0"/>
      <point x="573.0" y="522.0"/>
    </contour>
    <contour>
      <point x="387.0" y="775.0" type="line"/>
      <point x="387.0" y="395.0" type="line"/>
      <point x="457.0" y="395.0" type="line"/>
      <point x="457.0" y="775.0" type="line"/>
    </contour>
    <contour>
      <point x="266.0" y="775.0" type="line"/>
      <point x="266.0" y="395.0" type="line"/>
      <point x="336.0" y="395.0" type="line"/>
      <point x="336.0" y="775.0" type="line"/>
    </contour>
  </outline>
</glyph>
<glyph name="literSign" format="2">
  <advance width="496.0"/>
  <unicode hex="2113"/>
  <outline>
    <contour>
      <point x="97.0" y="125.0"/>
      <point x="149.0" y="-13.0"/>
      <point x="313.0" y="-13.0" type="curve" smooth="yes"/>
      <point x="397.0" y="-13.0"/>
      <point x="454.0" y="49.0"/>
      <point x="486.0" y="133.0" type="curve"/>
      <point x="440.0" y="160.0" type="line"/>
      <point x="410.0" y="76.0"/>
      <point x="363.0" y="56.0"/>
      <point x="316.0" y="56.0" type="curve" smooth="yes"/>
      <point x="200.0" y="56.0"/>
      <point x="178.0" y="177.0"/>
      <point x="178.0" y="281.0" type="curve" smooth="yes"/>
      <point x="178.0" y="362.0"/>
      <point x="193.0" y="456.0"/>
      <point x="217.0" y="540.0" type="curve" smooth="yes"/>
      <point x="237.0" y="609.0"/>
      <point x="272.0" y="640.0"/>
      <point x="301.0" y="640.0" type="curve" smooth="yes"/>
      <point x="357.0" y="640.0"/>
      <point x="356.0" y="559.0"/>
      <point x="342.0" y="508.0" type="curve" smooth="yes"/>
      <point x="293.0" y="346.0"/>
      <point x="167.0" y="251.0"/>
      <point x="2.0" y="137.0" type="curve"/>
      <point x="38.0" y="90.0" type="line"/>
      <point x="209.0" y="208.0"/>
      <point x="355.0" y="319.0"/>
      <point x="410.0" y="501.0" type="curve" smooth="yes"/>
      <point x="441.0" y="599.0"/>
      <point x="418.0" y="715.0"/>
      <point x="302.0" y="715.0" type="curve" smooth="yes"/>
      <point x="238.0" y="715.0"/>
      <point x="170.0" y="668.0"/>
      <point x="139.0" y="560.0" type="curve" smooth="yes"/>
      <point x="115.0" y="475.0"/>
      <point x="97.0" y="375.0"/>
      <point x="97.0" y="283.0" type="curve" smooth="yes"/>
    </contour>
  </outline>
</glyph>
<glyph name="Ohm" format="2">
  <advance width="786.0"/>
  <unicode hex="2126"/>
  <outline>
    <contour>
      <point x="22.0" y="0.0" type="line"/>
      <point x="319.0" y="0.0" type="line"/>
      <point x="319.0" y="57.0" type="line"/>
      <point x="232.0" y="79.0"/>
      <point x="128.0" y="179.0"/>
      <point x="128.0" y="349.0" type="curve" smooth="yes"/>
      <point x="128.0" y="520.0"/>
      <point x="234.0" y="637.0"/>
      <point x="392.0" y="637.0" type="curve" smooth="yes"/>
      <point x="551.0" y="637.0"/>
      <point x="656.0" y="521.0"/>
      <point x="656.0" y="350.0" type="curve" smooth="yes"/>
      <point x="656.0" y="181.0"/>
      <point x="554.0" y="80.0"/>
      <point x="467.0" y="57.0" type="curve"/>
      <point x="467.0" y="0.0" type="line"/>
      <point x="764.0" y="0.0" type="line"/>
      <point x="764.0" y="76.0" type="line"/>
      <point x="627.0" y="76.0" type="line"/>
      <point x="627.0" y="79.0" type="line"/>
      <point x="684.0" y="119.0"/>
      <point x="740.0" y="252.0"/>
      <point x="740.0" y="350.0" type="curve" smooth="yes"/>
      <point x="740.0" y="552.0"/>
      <point x="598.0" y="713.0"/>
      <point x="392.0" y="713.0" type="curve" smooth="yes"/>
      <point x="186.0" y="713.0"/>
      <point x="44.0" y="550.0"/>
      <point x="44.0" y="349.0" type="curve" smooth="yes"/>
      <point x="44.0" y="243.0"/>
      <point x="98.0" y="119.0"/>
      <point x="156.0" y="79.0" type="curve"/>
      <point x="156.0" y="76.0" type="line"/>
      <point x="22.0" y="76.0" type="line"/>
    </contour>
  </outline>
</glyph>
<glyph name="upDownArrow" format="2">
  <advance width="600.0"/>
  <unicode hex="2195"/>
  <outline>
    <contour>
      <point x="299.0" y="-24.0" type="line"/>
      <point x="522.0" y="206.0" type="line"/>
      <point x="466.0" y="261.0" type="line"/>
      <point x="346.0" y="128.0" type="line"/>
      <point x="340.0" y="130.0" type="line"/>
      <point x="340.0" y="608.0" type="line"/>
      <point x="346.0" y="610.0" type="line"/>
      <point x="468.0" y="476.0" type="line"/>
      <point x="524.0" y="531.0" type="line"/>
      <point x="301.0" y="761.0" type="line"/>
      <point x="78.0" y="531.0" type="line"/>
      <point x="134.0" y="476.0" type="line"/>
      <point x="254.0" y="609.0" type="line"/>
      <point x="260.0" y="607.0" type="line"/>
      <point x="260.0" y="129.0" type="line"/>
      <point x="254.0" y="127.0" type="line"/>
      <point x="132.0" y="261.0" type="line"/>
      <point x="76.0" y="206.0" type="line"/>
    </contour>
  </outline>
</glyph>
<glyph name="product" format="2">
  <advance width="672.0"/>
  <unicode hex="220F"/>
  <outline>
    <contour>
      <point x="456.0" y="-220.0" type="line"/>
      <point x="516.0" y="-220.0" type="line"/>
      <point x="516.0" y="700.0" type="line"/>
      <point x="456.0" y="700.0" type="line"/>
    </contour>
    <contour>
      <point x="156.0" y="-220.0" type="line"/>
      <point x="216.0" y="-220.0" type="line"/>
      <point x="216.0" y="700.0" type="line"/>
      <point x="156.0" y="700.0" type="line"/>
    </contour>
    <contour>
      <point x="47.0" y="642.0" type="line"/>
      <point x="625.0" y="642.0" type="line"/>
      <point x="625.0" y="700.0" type="line"/>
      <point x="47.0" y="700.0" type="line"/>
    </contour>
  </outline>
</glyph>
<glyph name="cedi.tf" format="2">
  <advance width="596.0"/>
  <outline>
    <contour>
      <point x="338.0" y="17.0" type="curve" smooth="yes"/>
      <point x="442.0" y="17.0"/>
      <point x="530.0" y="59.0"/>
      <point x="590.0" y="132.0" type="curve"/>
      <point x="530.0" y="181.0" type="line"/>
      <point x="479.0" y="123.0"/>
      <point x="421.0" y="93.0"/>
      <point x="341.0" y="93.0" type="curve" smooth="yes"/>
      <point x="220.0" y="93.0"/>
      <point x="97.0" y="182.0"/>
      <point x="97.0" y="349.0" type="curve" smooth="yes"/>
      <point x="97.0" y="515.0"/>
      <point x="210.0" y="607.0"/>
      <point x="338.0" y="607.0" type="curve" smooth="yes"/>
      <point x="404.0" y="607.0"/>
      <point x="472.0" y="585.0"/>
      <point x="523.0" y="521.0" type="curve"/>
      <point x="584.0" y="573.0" type="line"/>
      <point x="521.0" y="648.0"/>
      <point x="435.0" y="683.0"/>
      <point x="338.0" y="683.0" type="curve" smooth="yes"/>
      <point x="164.0" y="683.0"/>
      <point x="10.0" y="553.0"/>
      <point x="10.0" y="349.0" type="curve" smooth="yes"/>
      <point x="10.0" y="145.0"/>
      <point x="166.0" y="17.0"/>
    </contour>
    <contour>
      <point x="290.0" y="-69.0" type="line"/>
      <point x="362.0" y="-69.0" type="line"/>
      <point x="362.0" y="775.0" type="line"/>
      <point x="290.0" y="775.0" type="line"/>
    </contour>
  </outline>
</glyph>
<glyph name="commaaccentcomb.loclMAH" format="2">
  <anchor x="0.0" y="0.0" name="_bottom"/>
  <outline>
    <contour>
      <point x="14.0" y="-221.0" type="curve" smooth="yes"/>
      <point x="76.0" y="-221.0"/>
      <point x="127.0" y="-182.0"/>
      <point x="127.0" y="-126.0" type="curve" smooth="yes"/>
      <point x="127.0" y="-58.0"/>
      <point x="61.0" y="-31.0"/>
      <point x="1.0" y="-45.0" type="curve"/>
      <point x="-16.0" y="-88.0" type="line"/>
      <point x="-13.0" y="-91.0" type="line"/>
      <point x="-6.0" y="-89.0"/>
      <point x="2.0" y="-88.0"/>
      <point x="12.0" y="-88.0" type="curve" smooth="yes"/>
      <point x="42.0" y="-88.0"/>
      <point x="64.0" y="-101.0"/>
      <point x="64.0" y="-126.0" type="curve" smooth="yes"/>
      <point x="64.0" y="-147.0"/>
      <point x="50.0" y="-166.0"/>
      <point x="14.0" y="-166.0" type="curve" smooth="yes"/>
      <point x="-9.0" y="-166.0"/>
      <point x="-29.0" y="-157.0"/>
      <point x="-45.0" y="-139.0" type="curve"/>
      <point x="-77.0" y="-184.0" type="line"/>
      <point x="-54.0" y="-208.0"/>
      <point x="-23.0" y="-221.0"/>
    </contour>
  </outline>
</glyph>
<glyph name="f_f_l.ss11" format="2">
  <advance width="899.0"/>
  <anchor x="369.0" y="0.0" name="caret_1"/>
  <anchor x="685.0" y="0.0" name="caret_2"/>
  <outline>
    <contour>
      <point x="117.0" y="0.0" type="line"/>
      <point x="197.0" y="0.0" type="line"/>
      <point x="197.0" y="526.0" type="line" smooth="yes"/>
      <point x="197.0" y="588.0"/>
      <point x="234.0" y="639.0"/>
      <point x="315.0" y="639.0" type="curve" smooth="yes"/>
      <point x="391.0" y="639.0"/>
      <point x="432.0" y="588.0"/>
      <point x="432.0" y="526.0" type="curve" smooth="yes"/>
      <point x="432.0" y="0.0" type="line"/>
      <point x="512.0" y="0.0" type="line"/>
      <point x="512.0" y="526.0" type="line" smooth="yes"/>
      <point x="512.0" y="588.0"/>
      <point x="549.0" y="639.0"/>
      <point x="630.0" y="639.0" type="curve" smooth="yes"/>
      <point x="706.0" y="639.0"/>
      <point x="747.0" y="588.0"/>
      <point x="747.0" y="526.0" type="curve" smooth="yes"/>
      <point x="747.0" y="0.0" type="line"/>
      <point x="827.0" y="0.0" type="line"/>
      <point x="827.0" y="526.0" type="line" smooth="yes"/>
      <point x="827.0" y="626.0"/>
      <point x="746.0" y="713.0"/>
      <point x="630.0" y="713.0" type="curve" smooth="yes"/>
      <point x="551.0" y="713.0"/>
      <point x="481.0" y="670.0"/>
      <point x="467.0" y="604.0" type="curve"/>
      <point x="512.0" y="629.0" type="line"/>
      <point x="430.0" y="629.0" type="line"/>
      <point x="475.0" y="603.0" type="line"/>
      <point x="460.0" y="671.0"/>
      <point x="390.0" y="713.0"/>
      <point x="315.0" y="713.0" type="curve" smooth="yes"/>
      <point x="194.0" y="713.0"/>
      <point x="117.0" y="626.0"/>
      <point x="117.0" y="530.0" type="curve" smooth="yes"/>
    </contour>
    <contour>
      <point x="17.0" y="418.0" type="line"/>
      <point x="675.0" y="418.0" type="line"/>
      <point x="675.0" y="490.0" type="line"/>
      <point x="17.0" y="490.0" type="line"/>
    </contour>
  </outline>
</glyph>
<glyph name="f_i.ss11" format="2">
  <advance width="584.0"/>
  <anchor x="472.0" y="0.0" name="bottom_1"/>
  <anchor x="434.0" y="0.0" name="ogonek_1"/>
  <anchor x="472.0" y="490.0" name="top_1"/>
  <anchor x="369.0" y="0.0" name="caret_1"/>
  <outline>
    <contour>
      <point x="117.0" y="0.0" type="line"/>
      <point x="197.0" y="0.0" type="line"/>
      <point x="197.0" y="532.0" type="line" smooth="yes"/>
      <point x="197.0" y="599.0"/>
      <point x="248.0" y="639.0"/>
      <point x="315.0" y="639.0" type="curve" smooth="yes"/>
      <point x="387.0" y="639.0"/>
      <point x="433.0" y="591.0"/>
      <point x="433.0" y="514.0" type="curve"/>
      <point x="394.0" y="546.0" type="line"/>
      <point x="550.0" y="546.0" type="line"/>
      <point x="512.0" y="517.0" type="line"/>
      <point x="512.0" y="637.0"/>
      <point x="436.0" y="713.0"/>
      <point x="315.0" y="713.0" type="curve" smooth="yes"/>
      <point x="202.0" y="713.0"/>
      <point x="117.0" y="643.0"/>
      <point x="117.0" y="536.0" type="curve" smooth="yes"/>
    </contour>
    <contour>
      <point x="17.0" y="418.0" type="line"/>
      <point x="360.0" y="418.0" type="line"/>
      <point x="360.0" y="490.0" type="line"/>
      <point x="17.0" y="490.0" type="line"/>
    </contour>
    <component base="idotless" xOffset="360.0"/>
  </outline>
</glyph>
<glyph name="hungarumlautcomb.case" format="2">
  <anchor x="0.0" y="700.0" name="_top"/>
  <outline>
    <contour>
      <point x="33.0" y="740.0" type="line"/>
      <point x="85.0" y="740.0" type="line"/>
      <point x="173.0" y="853.0" type="line"/>
      <point x="75.0" y="853.0" type="line"/>
    </contour>
    <contour>
      <point x="-85.0" y="740.0" type="line"/>
      <point x="-33.0" y="740.0" type="line"/>
      <point x="55.0" y="853.0" type="line"/>
      <point x="-43.0" y="853.0" type="line"/>
    </contour>
  </outline>
</glyph>
<glyph name="jdotless.ss10" format="2">
  <advance width="224.0"/>
  <anchor x="110.0" y="-220.0" name="bottom"/>
  <anchor x="124.0" y="-220.0" name="ogonek"/>
  <anchor x="112.0" y="490.0" name="top"/>
  <outline>
    <contour>
      <point x="72.0" y="-220.0" type="line"/>
      <point x="152.0" y="-220.0" type="line"/>
      <point x="152.0" y="490.0" type="line"/>
      <point x="72.0" y="490.0" type="line"/>
    </contour>
  </outline>
</glyph>
<glyph name="u.ss10" format="2">
  <advance width="541.0"/>
  <anchor x="271.0" y="0.0" name="bottom"/>
  <anchor x="271.0" y="0.0" name="ogonek"/>
  <anchor x="272.0" y="490.0" name="top"/>
  <anchor x="474.0" y="490.0" name="topright"/>
  <outline>
    <contour>
      <point x="271.0" y="-12.0" type="curve" smooth="yes"/>
      <point x="396.0" y="-12.0"/>
      <point x="474.0" y="65.0"/>
      <point x="474.0" y="205.0" type="curve" smooth="yes"/>
      <point x="474.0" y="490.0" type="line"/>
      <point x="395.0" y="490.0" type="line"/>
      <point x="395.0" y="205.0" type="line" smooth="yes"/>
      <point x="395.0" y="110.0"/>
      <point x="352.0" y="61.0"/>
      <point x="271.0" y="61.0" type="curve" smooth="yes"/>
      <point x="190.0" y="61.0"/>
      <point x="147.0" y="110.0"/>
      <point x="147.0" y="205.0" type="curve" smooth="yes"/>
      <point x="147.0" y="490.0" type="line"/>
      <point x="67.0" y="490.0" type="line"/>
      <point x="67.0" y="205.0" type="line" smooth="yes"/>
      <point x="67.0" y="65.0"/>
      <point x="146.0" y="-12.0"/>
    </contour>
  </outline>
</glyph>
<glyph name="verticalBottomCurrencycomb" format="2">
  <advance width="300.0"/>
  <anchor x="0.0" y="53.0" name="_verticalBottomCurrency"/>
  <outline>
    <contour>
      <point x="-35.0" y="-69.0" type="line"/>
      <point x="35.0" y="-69.0" type="line"/>
      <point x="35.0" y="53.0" type="line"/>
      <point x="-35.0" y="53.0" type="line"/>
    </contour>
  </outline>
</glyph>
<glyph name="zero.lf" format="2">
  <advance width="618.0"/>
  <outline>
    <contour>
      <point x="309.0" y="-13.0" type="curve" smooth="yes"/>
      <point x="449.0" y="-12.0"/>
      <point x="551.0" y="92.0"/>
      <point x="551.0" y="239.0" type="curve" smooth="yes"/>
      <point x="551.0" y="471.0" type="line" smooth="yes"/>
      <point x="551.0" y="606.0"/>
      <point x="449.0" y="712.0"/>
      <point x="309.0" y="711.0" type="curve" smooth="yes"/>
      <point x="169.0" y="710.0"/>
      <point x="67.0" y="606.0"/>
      <point x="67.0" y="466.0" type="curve" smooth="yes"/>
      <point x="67.0" y="232.0" type="line" smooth="yes"/>
      <point x="67.0" y="92.0"/>
      <point x="169.0" y="-14.0"/>
    </contour>
    <contour>
      <point x="309.0" y="64.0" type="curve" smooth="yes"/>
      <point x="220.0" y="64.0"/>
      <point x="155.0" y="132.0"/>
      <point x="155.0" y="244.0" type="curve" smooth="yes"/>
      <point x="155.0" y="465.0" type="line" smooth="yes"/>
      <point x="155.0" y="569.0"/>
      <point x="220.0" y="634.0"/>
      <point x="309.0" y="634.0" type="curve" smooth="yes"/>
      <point x="398.0" y="634.0"/>
      <point x="463.0" y="566.0"/>
      <point x="463.0" y="460.0" type="curve" smooth="yes"/>
      <point x="463.0" y="238.0" type="line" smooth="yes"/>
      <point x="463.0" y="129.0"/>
      <point x="398.0" y="64.0"/>
    </contour>
  </outline>
</glyph>
